<?xml version="1.0" encoding="UTF-8"?>
<svg id="Layer_1" xmlns="http://www.w3.org/2000/svg" version="1.1" viewBox="0 0 151.95 107.66">
  <!-- Generator: Adobe Illustrator 30.6.0, SVG Export Plug-In . SVG Version: 2.1.4 Build 109)  -->
  <defs>
    <style>
      .st0 {
        fill: #fd0100;
      }

      .st1 {
        fill: #f6f6f6;
      }

      .st2 {
        fill: #4fa64a;
      }

      .st3 {
        fill: #fff;
      }

      .st4 {
        fill: #78bd63;
      }
    </style>
  </defs>
  <path class="st2" d="M149.93,0c1.11,0,2.02,1.37,2.02,3.06v101.54c0,1.69-.9,3.06-2.02,3.06H2.02c-1.11,0-2.02-1.37-2.02-3.06V3.06C0,1.37.9,0,2.02,0"/>
  <g>
    <rect class="st2" x="9.32" y="30.88" width="135.02" height="6.9" transform="translate(153.65 68.65) rotate(-180)"/>
    <rect class="st4" x="9.32" y="23.98" width="135.02" height="6.9" transform="translate(153.65 54.86) rotate(-180)"/>
    <rect class="st2" x="9.32" y="44.67" width="135.02" height="6.9" transform="translate(153.65 96.24) rotate(-180)"/>
    <rect class="st4" x="9.32" y="37.78" width="135.02" height="6.9" transform="translate(153.65 82.45) rotate(-180)"/>
    <rect class="st2" x="9.32" y="58.47" width="135.02" height="6.9" transform="translate(153.65 123.83) rotate(-180)"/>
    <rect class="st4" x="9.32" y="51.57" width="135.02" height="6.9" transform="translate(153.65 110.04) rotate(-180)"/>
    <rect class="st2" x="9.32" y="72.26" width="135.02" height="6.9" transform="translate(153.65 151.42) rotate(-180)"/>
    <rect class="st4" x="9.32" y="65.36" width="135.02" height="6.9" transform="translate(153.65 137.62) rotate(-180)"/>
    <rect class="st2" x="9.32" y="86.05" width="135.02" height="6.9" transform="translate(153.65 179) rotate(-180)"/>
    <rect class="st4" x="9.32" y="79.16" width="135.02" height="6.9" transform="translate(153.65 165.21) rotate(-180)"/>
    <rect class="st2" x="9.32" y="99.85" width="135.02" height="6.9" transform="translate(153.65 206.59) rotate(-180)"/>
    <rect class="st4" x="9.32" y="92.95" width="135.02" height="6.9" transform="translate(153.65 192.8) rotate(-180)"/>
  </g>
  <g>
    <ellipse class="st3" cx="73.03" cy="75.39" rx="1.86" ry=".66"/>
    <path class="st0" d="M84.29,55.3c-.86-.04-1.65-.3-2.35-.72l-1.93-1.16c-.62-.38-1.3-.59-2.03-.7-1.34-.21-2.64.2-3.61,1.13-.13.12-.34.16-.5.1-.12-.04-.26-.23-.26-.42v-7.88c0-.13.09-.33.17-.41,1.35-1.24,3.18-1.68,4.96-1.22s2.63,1.38,3.99,2.02c1.27.59,2.72.72,3.31-.58.09-.21.32-.33.51-.29.21.05.38.23.38.49v7.93c-.41,1.11-1.41,1.78-2.64,1.72Z"/>
    <rect class="st3" x="72.5" y="45.27" width="1.11" height="29.46"/>
  </g>
  <g>
    <path class="st1" d="M15.91,20.14h-1.93V7.75l.32.3h-3.72v-1.67h8.75v1.67h-3.72l.3-.3v12.39Z"/>
    <path class="st1" d="M20.54,17.71v-8.9c0-.92.23-1.58.7-1.98.47-.4,1.19-.6,2.18-.6h3.77c.98,0,1.71.2,2.18.6.47.4.7,1.06.7,1.98v8.9c0,.91-.23,1.57-.7,1.97-.47.4-1.19.61-2.18.61h-3.77c-.98,0-1.71-.2-2.18-.61-.47-.4-.7-1.06-.7-1.97ZM27.88,7.97h-5.15c-.14,0-.22.07-.22.22v10.16c0,.14.07.22.22.22h5.15c.14,0,.22-.07.22-.22v-10.16c0-.14-.07-.22-.22-.22Z"/>
    <path class="st1" d="M39.32,20.29h-3.72c-.98,0-1.71-.2-2.18-.61-.47-.4-.7-1.06-.7-1.97V6.39h1.97v11.95c0,.14.07.22.22.22h5.11c.14,0,.22-.07.22-.22V6.39h1.99v11.33c0,.91-.23,1.57-.7,1.97s-1.2.61-2.2.61Z"/>
    <path class="st1" d="M47.05,20.14h-1.93V6.39l5.78-.09c1.01-.01,1.77.21,2.28.68.51.47.77,1.17.77,2.11v2.66c0,.82-.21,1.47-.64,1.95-.43.48-1.06.76-1.92.84l.02-.41c.38.09.67.25.88.5.21.25.4.61.57,1.1l1.54,4.4h-1.95l-1.8-5.26c-.03-.1-.06-.17-.11-.21-.04-.04-.12-.05-.24-.05h-3.68l.41-.37v5.89ZM47.05,7.6v5.72l-.33-.35h4.98c.19,0,.28-.09.28-.28v-4.44c0-.17-.09-.26-.28-.26h-4.96l.3-.39Z"/>
    <path class="st1" d="M62.77,20.14h-1.93V6.39l5.76-.09c1.01-.01,1.77.21,2.28.68.51.47.77,1.17.77,2.11v2.99c0,.59-.11,1.1-.34,1.54s-.56.76-1.02.97c-.45.22-1.02.33-1.7.33h-4.24l.41-.37v5.59ZM62.77,7.6v6l-.33-.35h4.96c.19,0,.28-.09.28-.28v-4.72c0-.17-.09-.26-.28-.26h-4.94l.3-.39Z"/>
    <path class="st1" d="M73.51,20.14h-1.93V6.39l5.78-.09c1.01-.01,1.77.21,2.28.68.51.47.77,1.17.77,2.11v2.66c0,.82-.21,1.47-.64,1.95s-1.06.76-1.92.84l.02-.41c.38.09.67.25.88.5.21.25.4.61.57,1.1l1.54,4.4h-1.95l-1.8-5.26c-.03-.1-.06-.17-.11-.21-.04-.04-.12-.05-.24-.05h-3.68l.41-.37v5.89ZM73.51,7.6v5.72l-.33-.35h4.98c.19,0,.28-.09.28-.28v-4.44c0-.17-.09-.26-.28-.26h-4.96l.3-.39Z"/>
    <path class="st1" d="M82.93,17.71v-8.9c0-.92.23-1.58.7-1.98.47-.4,1.19-.6,2.18-.6h3.77c.98,0,1.71.2,2.18.6.47.4.7,1.06.7,1.98v8.9c0,.91-.24,1.57-.7,1.97-.47.4-1.2.61-2.18.61h-3.77c-.98,0-1.71-.2-2.18-.61-.47-.4-.7-1.06-.7-1.97ZM90.27,7.97h-5.15c-.14,0-.22.07-.22.22v10.16c0,.14.07.22.22.22h5.15c.14,0,.22-.07.22-.22v-10.16c0-.14-.07-.22-.22-.22Z"/>
    <path class="st1" d="M101.03,12.36h3.25c1.01,0,1.78.22,2.32.67.53.45.8,1.13.8,2.06v2.34c0,.94-.26,1.64-.77,2.11-.51.47-1.27.7-2.29.68l-5.35-.09v-1.67h6.15c.19,0,.28-.09.28-.28v-3.81c0-.19-.09-.28-.28-.28h-3.31c-1.01,0-1.77-.21-2.29-.64-.51-.43-.77-1.12-.77-2.07v-2.25c0-.92.27-1.63.8-2.12.53-.49,1.31-.73,2.32-.71l5.11.09v1.67h-5.98c-.19,0-.28.09-.28.28v3.75c0,.19.09.28.28.28Z"/>
    <path class="st1" d="M117.32,12.67v-6.28h1.91v13.75h-1.91v-6.48l.35.33h-6.34l.35-.33v6.48h-1.93V6.39h1.93v6.28l-.35-.35h6.34l-.35.35Z"/>
    <path class="st1" d="M122.08,17.71v-8.9c0-.92.23-1.58.7-1.98.47-.4,1.19-.6,2.18-.6h3.77c.98,0,1.71.2,2.18.6.47.4.7,1.06.7,1.98v8.9c0,.91-.24,1.57-.7,1.97-.47.4-1.2.61-2.18.61h-3.77c-.98,0-1.71-.2-2.18-.61-.47-.4-.7-1.06-.7-1.97ZM129.42,7.97h-5.15c-.14,0-.22.07-.22.22v10.16c0,.14.07.22.22.22h5.15c.14,0,.22-.07.22-.22v-10.16c0-.14-.07-.22-.22-.22Z"/>
    <path class="st1" d="M136.44,20.14h-1.93V6.39l5.76-.09c1.01-.01,1.77.21,2.29.68.51.47.77,1.17.77,2.11v2.99c0,.59-.11,1.1-.34,1.54s-.56.76-1.02.97c-.46.22-1.02.33-1.7.33h-4.24l.41-.37v5.59ZM136.44,7.6v6l-.32-.35h4.96c.19,0,.28-.09.28-.28v-4.72c0-.17-.09-.26-.28-.26h-4.94l.3-.39Z"/>
  </g>
</svg>